<svg width="118" height="20" viewBox="0 0 118 20" fill="none" xmlns="http://www.w3.org/2000/svg">
<path d="M104.137 0.219727H101.692V2.75144H104.137V0.219727Z" fill="#F3F3F3"/>
<path d="M11.1678 6.74364H3.12783V0.219727H0.637695V15.969H3.12783V8.79534H11.1678V15.969H13.658V0.219727H11.1678V6.74364Z" fill="#F3F3F3"/>
<path d="M35.9439 5.28036C35.1924 4.79744 34.2918 4.55451 33.2659 4.55451C32.24 4.55451 31.3066 4.79744 30.5312 5.28036C30.0362 5.59061 29.6455 5.97695 29.3652 6.43939V4.7711H27.0301V19.9818H29.4755V14.3799C29.7201 14.7838 30.0392 15.1262 30.4269 15.4013C31.1366 15.9077 32.0372 16.1623 33.1078 16.1623C34.1785 16.1623 35.0672 15.9194 35.8425 15.4365C36.6149 14.9535 37.2263 14.2657 37.6587 13.3906C38.0881 12.5184 38.3058 11.4852 38.3058 10.3262C38.3058 9.1672 38.1 8.16329 37.6915 7.30573C37.2829 6.44524 36.6924 5.76329 35.9409 5.28036H35.9439ZM35.8187 10.3262C35.8187 11.5174 35.5264 12.4628 34.9538 13.1389C34.3812 13.8121 33.5999 14.1516 32.6277 14.1516C31.6555 14.1516 30.8444 13.815 30.2658 13.1477C29.6843 12.4774 29.3891 11.5496 29.3891 10.3906C29.3891 9.23159 29.6843 8.25695 30.2658 7.58963C30.8444 6.92524 31.6317 6.58573 32.6039 6.58573C33.5761 6.58573 34.3812 6.91646 34.9538 7.56915C35.5264 8.22476 35.8187 9.15256 35.8187 10.3262Z" fill="#F3F3F3"/>
<path d="M47.8667 5.24542C47.0556 4.7859 46.0893 4.55176 44.9919 4.55176C43.8944 4.55176 42.8507 4.79468 41.9739 5.27468C41.0971 5.75761 40.4082 6.43956 39.9251 7.30883C39.442 8.17517 39.1975 9.19664 39.1975 10.344C39.1975 11.4913 39.445 12.4952 39.9341 13.3703C40.4232 14.2454 41.112 14.9391 41.9828 15.4337C42.8507 15.9284 43.8706 16.1801 45.0128 16.1801C46.2444 16.1801 47.318 15.8757 48.2007 15.2786C49.0864 14.6815 49.7216 13.8444 50.0944 12.7937L50.1302 12.6971H47.813L47.7922 12.741C47.5655 13.2444 47.2106 13.6308 46.7424 13.8884C46.2712 14.1488 45.7046 14.2805 45.0575 14.2805C43.9958 14.2805 43.1578 13.9323 42.5644 13.2444C42.0992 12.7088 41.8129 11.9888 41.7115 11.1108H50.33L50.3419 11.0493C50.3718 10.8913 50.3897 10.7303 50.3986 10.5722C50.4046 10.4201 50.4105 10.2562 50.4105 10.0805C50.4105 8.96249 50.1898 7.982 49.7515 7.16542C49.3131 6.34883 48.6779 5.69907 47.8697 5.23956L47.8667 5.24542ZM41.7592 9.27566C41.8874 8.54981 42.1588 7.94395 42.5674 7.47859C43.1608 6.79956 43.9779 6.4542 44.9949 6.4542C45.9402 6.4542 46.6858 6.75859 47.2136 7.36152C47.6222 7.82688 47.8757 8.47078 47.9681 9.27859H41.7622L41.7592 9.27566Z" fill="#F3F3F3"/>
<path d="M57.6782 4.55451C56.7686 4.55451 55.9724 4.80622 55.3133 5.3067C54.8689 5.64329 54.5111 6.0911 54.2427 6.64134V4.7711H51.9076V15.9692H54.353V10.1331C54.353 9.04427 54.6244 8.21598 55.1612 7.67159C55.695 7.12719 56.5121 6.84915 57.5917 6.84915C57.7796 6.84915 57.9406 6.85207 58.0718 6.86085C58.1971 6.86671 58.2925 6.88427 58.3581 6.91061L58.4595 6.95158V4.67158L58.4148 4.6511C58.2716 4.58963 58.0301 4.55744 57.6782 4.55744V4.55451Z" fill="#F3F3F3"/>
<path d="M65.1068 9.47452L63.2519 9.02086C62.6346 8.86573 62.1873 8.67256 61.9248 8.45012C61.6684 8.23354 61.5431 7.9672 61.5431 7.63939C61.5431 7.24134 61.7101 6.93988 62.0501 6.71451C62.396 6.48622 62.906 6.36915 63.565 6.36915C64.2659 6.36915 64.8295 6.50671 65.2351 6.7789C65.6347 7.04817 65.8822 7.43451 65.9657 7.93207L65.9776 7.99354H68.2411L68.2322 7.91451C68.1278 6.85793 67.6596 6.02378 66.8454 5.43549C66.0343 4.85012 64.9518 4.55451 63.6336 4.55451C62.3155 4.55451 61.233 4.84719 60.4636 5.42671C59.6912 6.00914 59.2975 6.81988 59.2975 7.83549C59.2975 8.64622 59.5838 9.33988 60.1474 9.89012C60.7081 10.4404 61.5699 10.8589 62.7121 11.134L64.5223 11.5467C65.1665 11.7018 65.6049 11.895 65.8226 12.1204C66.0373 12.3428 66.1446 12.6209 66.1446 12.9487C66.1446 13.4023 65.9597 13.7448 65.581 13.9935C65.1993 14.2453 64.6327 14.3711 63.899 14.3711C63.064 14.3711 62.399 14.2043 61.9218 13.8765C61.4477 13.5516 61.1584 13.0745 61.06 12.4628L61.051 12.4013H58.7846L58.7935 12.4804C58.9128 13.6511 59.4198 14.5731 60.3025 15.2199C61.1793 15.8609 62.3751 16.1887 63.8573 16.1887C65.3394 16.1887 66.4041 15.8989 67.2033 15.3282C68.0085 14.7516 68.4141 13.9467 68.4141 12.9282C68.4141 12.0911 68.1338 11.3623 67.5791 10.7652C67.0274 10.1711 66.1983 9.73793 65.1128 9.47452H65.1068Z" fill="#F3F3F3"/>
<path d="M72.2343 1.33806H69.8098V13.2708C69.8098 14.7517 71.0384 15.9576 72.5474 15.9576H75.4073V13.9439H73.0395C72.5951 13.9439 72.2343 13.5898 72.2343 13.1537V6.71466H75.4342V4.77124H72.2343V1.33806Z" fill="#F3F3F3"/>
<path d="M84.4135 10.8036C84.4135 11.468 84.2704 12.0563 83.993 12.5568C83.7127 13.0572 83.328 13.4524 82.8508 13.7304C82.3707 14.0114 81.816 14.1548 81.1987 14.1548C80.5158 14.1548 79.985 13.9733 79.6181 13.6133C79.2513 13.2533 79.0664 12.6943 79.0664 11.9538V4.77139H76.621V12.4719C76.621 13.189 76.7851 13.8358 77.1042 14.3919C77.4262 14.9509 77.8855 15.3929 78.47 15.709C79.0515 16.0251 79.7344 16.1831 80.4919 16.1831C81.4731 16.1831 82.3588 15.9343 83.1252 15.4455C83.6859 15.0885 84.1481 14.6348 84.5 14.0933V15.9665H86.8351V4.77139H84.4105V10.8036H84.4135Z" fill="#F3F3F3"/>
<path d="M97.2966 6.36022C97.0521 5.95632 96.73 5.61388 96.3453 5.33583C95.6356 4.82949 94.726 4.57485 93.6405 4.57485C92.5549 4.57485 91.6812 4.81778 90.9058 5.30071C90.1334 5.78364 89.5221 6.47144 89.0896 7.34656C88.6602 8.21876 88.4425 9.249 88.4425 10.411C88.4425 11.5729 88.6572 12.5739 89.0777 13.4344C89.5012 14.2949 90.1036 14.9768 90.87 15.4568C91.6364 15.9397 92.546 16.1827 93.5719 16.1827C94.5977 16.1827 95.5192 15.9339 96.2618 15.4451C96.736 15.1349 97.1117 14.7485 97.3831 14.2949V15.9661H99.7182V0.219727H97.2966V6.36022ZM96.4855 7.58949C97.067 8.25973 97.3622 9.18754 97.3622 10.3466C97.3622 11.5056 97.07 12.4802 96.4974 13.1475C95.9248 13.8119 95.1345 14.1514 94.1474 14.1514C93.1603 14.1514 92.373 13.8207 91.8094 13.171C91.2428 12.5153 90.9565 11.5875 90.9565 10.411C90.9565 9.23437 91.2428 8.25681 91.8124 7.58656C92.376 6.92217 93.1544 6.58266 94.1295 6.58266C95.1047 6.58266 95.9129 6.91925 96.4914 7.58656L96.4855 7.58949Z" fill="#F3F3F3"/>
<path d="M104.134 4.77177H101.689V15.9698H104.134V4.77177Z" fill="#F3F3F3"/>
<path d="M116.607 7.32364C116.124 6.46315 115.435 5.7812 114.558 5.29242C113.682 4.80364 112.644 4.55778 111.475 4.55778C110.306 4.55778 109.292 4.80656 108.424 5.29242C107.556 5.7812 106.861 6.46315 106.363 7.32364C105.865 8.18413 105.615 9.19388 105.615 10.3295C105.615 11.4651 105.862 12.4632 106.351 13.3441C106.841 14.2251 107.535 14.9275 108.412 15.431C109.289 15.9344 110.318 16.189 111.475 16.189C112.632 16.189 113.685 15.9344 114.558 15.431C115.435 14.9275 116.124 14.2251 116.607 13.3441C117.09 12.4632 117.335 11.4505 117.335 10.3295C117.335 9.20852 117.09 8.18413 116.607 7.32656V7.32364ZM114.845 10.3061C114.845 11.0846 114.699 11.7753 114.409 12.3549C114.123 12.9344 113.726 13.391 113.231 13.7129C112.739 14.0349 112.149 14.1988 111.475 14.1988C110.801 14.1988 110.246 14.0349 109.739 13.7129C109.229 13.391 108.833 12.9344 108.552 12.3549C108.272 11.7753 108.129 11.0846 108.129 10.3061C108.129 9.16169 108.445 8.23681 109.071 7.56071C109.695 6.88754 110.503 6.5451 111.478 6.5451C112.453 6.5451 113.285 6.88461 113.905 7.55193C114.529 8.22217 114.845 9.14998 114.845 10.309V10.3061Z" fill="#F3F3F3"/>
<path d="M20.4813 12.4953L17.3291 4.81822L17.3112 4.77139H14.6511L19.187 15.1851L18.2775 17.3216C18.1671 17.5675 17.9196 17.7255 17.6453 17.7255H15.5249V19.9792H17.9793C18.9723 19.9792 19.864 19.3997 20.2457 18.5012L26.0282 4.87383L26.0729 4.77139H23.5231L20.4843 12.4953H20.4813Z" fill="#F3F3F3"/>
</svg>
